<svg t="1619814722580" class="icon" viewBox="0 0 1024 1024" version="1.1"
    xmlns="http://www.w3.org/2000/svg" p-id="2400" width="32" height="32">
    <path
        d="M874.076432 562.983161c-8.984628-82.353636-198.799742-78.153988-274.676873-81.189114s-98.129948-15.916505-104.199177-31.092136c-1.553379-3.882424-3.139503-16.496719-4.640694-33.407877 73.571622-25.784246 126.479623-95.912443 126.479623-178.177052 0-104.07331-84.669378-188.742688-188.742688-188.742688-104.074334 0-188.744735 84.669378-188.744735 188.742688 0 83.392292 54.367235 154.315598 129.515772 179.214684 0.203638 91.410919 0.423649 194.204074 0.423649 209.754235 0 28.833699-10.870582 17.325597-15.934924 15.175631-68.548212-29.100782-172.120103-43.386136-245.474784-20.48659-37.96773 11.852956-29.698392 65.455781 7.398504 80.414471 20.018939 8.071839 45.195342 9.895371 66.202795 11.007705 49.771567 2.636037 67.920926 19.72832 106.618273 39.45664 51.623751 31.400151 110.464881 70.75446 156.000983 127.931694 35.665291 44.782949 59.171658 64.809051 82.547041 64.809051 68.902276 0 183.342702 8.527211 256.915347-2.006703 73.655534-10.546194 91.352591-162.465209 91.352591-162.465209S883.181811 646.449131 874.076432 562.983161zM307.08805 239.116983c0-66.833151 54.373375-121.204479 121.206526-121.204479 66.833151 0 121.204479 54.372352 121.204479 121.204479 0 46.056965-25.824155 86.194104-63.751976 106.699114-1.934049-35.848463-3.200902-68.880787-3.200902-76.868715 0-18.210757-7.587815-59.94323-59.183937-59.94323-56.908104 0-54.632271 61.460794-54.632271 61.460794s0.070608 30.754444 0.169869 74.27361C332.036255 323.926554 307.08805 284.382932 307.08805 239.116983z"
        p-id="2401" fill="#2c2c2c"></path>
</svg>