<svg t="1610594540052" class="icon" viewBox="0 0 1024 1024" version="1.1"
    xmlns="http://www.w3.org/2000/svg" p-id="6141" width="200" height="200">
    <path
        d="M698.181818 232.727273V93.090909H93.090909v605.090909h139.636364V232.727273h465.454545z m93.090909 93.090909v465.454545H325.818182v139.636364h605.090909V325.818182h-139.636364z m0-93.090909h232.727273v791.272727H232.727273V791.272727H0V0h791.272727v232.727273z m-279.272727 139.636363a46.545455 46.545455 0 0 0-46.545455 46.545455v69.818182a46.545455 46.545455 0 0 0 93.09091 0v-69.818182a46.545455 46.545455 0 0 0-46.545455-46.545455z m-0.325818 186.181819c-13.079273 0-23.854545 4.328727-32.279273 13.032727-9.309091 8.238545-13.940364 19.316364-13.940364 33.186909 0 13.032727 4.654545 24.087273 13.940364 33.210182 8.843636 9.099636 19.618909 13.661091 32.279273 13.661091a48.872727 48.872727 0 0 0 33.582545-13.032728c8.843636-9.099636 13.288727-20.386909 13.288728-33.838545 0-13.893818-4.421818-24.948364-13.288728-33.210182-8.448-8.680727-19.642182-13.009455-33.582545-13.009454z"
        fill="#2c2c2c" p-id="6142"></path>
</svg>